<svg width="21" height="26" viewBox="0 0 21 26" fill="none" xmlns="http://www.w3.org/2000/svg">
<path d="M18.1998 0H2.59998C1.91042 0 1.24911 0.273925 0.761516 0.761516C0.273925 1.24911 0 1.91042 0 2.59998V24.6998C0.00136937 24.9267 0.0620861 25.1492 0.176116 25.3453C0.290145 25.5415 0.453517 25.7043 0.649994 25.8178C0.847618 25.9319 1.07179 25.9919 1.29999 25.9919C1.52818 25.9919 1.75236 25.9319 1.94998 25.8178L10.3999 20.9948L18.8498 25.8308C19.048 25.9431 19.2721 26.0013 19.4998 25.9998C19.7297 26.0043 19.9557 25.941 20.1498 25.8178C20.3463 25.7043 20.5097 25.5415 20.6237 25.3453C20.7377 25.1492 20.7985 24.9267 20.7998 24.6998V2.59998C20.7998 1.91042 20.5259 1.24911 20.0383 0.761516C19.5507 0.273925 18.8894 0 18.1998 0Z" fill="white"/>
</svg>
