<svg width="23" height="22" viewBox="0 0 23 22" fill="none" xmlns="http://www.w3.org/2000/svg">
<path fill-rule="evenodd" clip-rule="evenodd" d="M8.94445 22H14.0555C17.6448 22 19.4394 22 20.7285 21.1012C21.2865 20.712 21.7657 20.212 22.1386 19.6297C23 18.2846 23 16.4119 23 12.6666C23 8.92149 23 7.04881 22.1386 5.70362C21.7657 5.12128 21.2865 4.62127 20.7285 4.23216C19.9001 3.6546 18.8631 3.44817 17.2753 3.37438C16.5176 3.37438 15.8653 2.77528 15.7167 2C15.4937 0.837088 14.5152 0 13.3788 0H9.62124C8.48476 0 7.50622 0.837088 7.28333 2C7.13474 2.77528 6.48238 3.37438 5.7247 3.37438C4.13693 3.44817 3.09988 3.6546 2.27153 4.23216C1.71344 4.62127 1.23427 5.12128 0.861373 5.70362C8.06416e-08 7.04881 0 8.92149 0 12.6666C0 16.4119 8.06416e-08 18.2846 0.861373 19.6297C1.23427 20.212 1.71344 20.712 2.27153 21.1012C3.56068 22 5.35526 22 8.94445 22ZM11.5 7.66667C8.85363 7.66667 6.70833 9.90526 6.70833 12.6666C6.70833 15.4281 8.85363 17.6666 11.5 17.6666C14.1464 17.6666 16.2917 15.4281 16.2917 12.6666C16.2917 9.90526 14.1464 7.66667 11.5 7.66667ZM11.5 9.66668C9.91219 9.66668 8.625 11.0098 8.625 12.6666C8.625 14.3235 9.91219 15.6667 11.5 15.6667C13.0878 15.6667 14.375 14.3235 14.375 12.6666C14.375 11.0098 13.0878 9.66668 11.5 9.66668ZM16.9305 8.66666C16.9305 8.11438 17.3596 7.66667 17.8889 7.66667H19.1667C19.6959 7.66667 20.125 8.11438 20.125 8.66666C20.125 9.21898 19.6959 9.66668 19.1667 9.66668H17.8889C17.3596 9.66668 16.9305 9.21898 16.9305 8.66666Z" fill="white"/>
</svg>
