<svg width="28" height="28" viewBox="0 0 28 28" fill="none" xmlns="http://www.w3.org/2000/svg">
<path d="M14 0C6.3 0 7.30157e-08 6.3 7.30157e-08 14C7.30157e-08 17.22 1.12 20.3 3.22 22.82L0.42 25.62C-0.14 26.18 -0.14 27.02 0.42 27.58C0.7 27.86 0.98 28 1.4 28H14C21.7 28 28 21.7 28 14C28 6.3 21.7 0 14 0ZM8.4 15.4C7.56 15.4 7 14.84 7 14C7 13.16 7.56 12.6 8.4 12.6C9.24 12.6 9.8 13.16 9.8 14C9.8 14.84 9.24 15.4 8.4 15.4ZM14 15.4C13.16 15.4 12.6 14.84 12.6 14C12.6 13.16 13.16 12.6 14 12.6C14.84 12.6 15.4 13.16 15.4 14C15.4 14.84 14.84 15.4 14 15.4ZM19.6 15.4C18.76 15.4 18.2 14.84 18.2 14C18.2 13.16 18.76 12.6 19.6 12.6C20.44 12.6 21 13.16 21 14C21 14.84 20.44 15.4 19.6 15.4Z" fill="white"/>
</svg>
