<svg width="26" height="34" viewBox="0 0 26 34" fill="none" xmlns="http://www.w3.org/2000/svg">
<path d="M22.3697 31.3013C21.0147 32.5537 19.4101 33.4339 17.6872 33.87C17.5224 33.9295 17.4114 33.6915 17.5224 33.5725C21.2126 29.688 19.1849 25.4839 17.6872 23.5884C16.6195 22.2353 15.0987 20.0066 15.2096 17.018C15.2096 16.7188 14.9323 16.4791 14.7135 16.6593C12.6196 17.8544 11.1882 20.4843 10.803 22.6348C10.1959 21.9786 9.97557 20.962 9.97557 20.0661C9.97557 19.7669 9.64585 19.5272 9.37004 19.7669C7.38704 21.7389 3.97265 28.4317 9.48098 33.6898C9.59038 33.8105 9.48098 34.0502 9.37004 33.9907C7.69981 33.5076 6.12909 32.6754 4.74305 31.5393C-4.23515 23.8893 1.60445 10.3235 5.40559 5.84229C5.90018 5.3034 6.78152 5.66209 6.78152 6.43899C6.83698 8.05397 7.27765 9.84576 8.43324 11.0408C9.31458 6.97788 12.2513 2.36242 16.4377 0.0912381C16.9877 -0.207959 17.6487 0.269737 17.5933 0.927632C17.4854 6.48659 20.7719 10.026 23.6362 14.6278C26.1708 18.7503 27.8226 26.3407 22.3697 31.3013Z" fill="white"/>
</svg>
