<svg width="25" height="23" viewBox="0 0 25 23" fill="none" xmlns="http://www.w3.org/2000/svg">
<path d="M19.9355 9.14854C19.9355 10.0403 19.1813 10.7634 18.2509 10.7634C17.3205 10.7634 16.5662 10.0403 16.5662 9.14854C16.5662 8.25667 17.3205 7.53369 18.2509 7.53369C19.1813 7.53369 19.9355 8.25667 19.9355 9.14854Z" fill="white"/>
<path fill-rule="evenodd" clip-rule="evenodd" d="M19.3616 3.66119C18.0822 3.4963 16.4473 3.49631 14.3832 3.49634H9.76406C7.69996 3.49631 6.0651 3.4963 4.78562 3.66119C3.46885 3.83089 2.40305 4.18842 1.56254 4.99407C0.722039 5.79972 0.349025 6.82131 0.171989 8.08347C-3.59102e-05 9.3099 -1.18688e-05 10.8769 2.04815e-07 12.8553V12.9769C-1.18688e-05 14.9553 -3.59102e-05 16.5223 0.171989 17.7488C0.349025 19.0109 0.722039 20.0325 1.56254 20.8381C2.40305 21.6438 3.46884 22.0013 4.78562 22.1711C6.06511 22.3359 7.69996 22.3359 9.76406 22.3359H14.3832C16.4473 22.3359 18.0822 22.3359 19.3616 22.1711C20.6784 22.0013 21.7442 21.6438 22.5847 20.8381C23.4252 20.0325 23.7982 19.0109 23.9752 17.7488C24.1472 16.5223 24.1472 14.9553 24.1472 12.9769V12.8554C24.1472 10.8769 24.1472 9.3099 23.9752 8.08347C23.7982 6.82131 23.4252 5.79972 22.5847 4.99407C21.7442 4.18842 20.6784 3.83089 19.3616 3.66119ZM5.01011 5.26161C3.88014 5.40723 3.22911 5.68031 2.7538 6.13592C2.27849 6.59152 1.99358 7.21554 1.84166 8.29864C1.7198 9.16743 1.69253 10.2532 1.68644 11.6734L2.25492 11.1966C3.61213 10.0583 5.65765 10.1237 6.93285 11.346L11.7508 15.964C12.2331 16.4264 12.9925 16.4895 13.5507 16.1135L13.8856 15.888C15.492 14.8058 17.6654 14.9311 19.1249 16.1902L22.0318 18.6979C22.1506 18.3791 22.2403 17.9987 22.3055 17.5336C22.4608 16.4273 22.4626 14.9689 22.4626 12.9162C22.4626 10.8633 22.4608 9.40491 22.3055 8.29864C22.1536 7.21554 21.8687 6.59152 21.3935 6.13592C20.9181 5.68031 20.2671 5.40723 19.1372 5.26161C17.9829 5.11286 16.4615 5.11115 14.3199 5.11115H9.82732C7.68576 5.11115 6.1643 5.11286 5.01011 5.26161Z" fill="white"/>
<path d="M18.2147 0.133281C17.1766 -3.56404e-05 15.8549 -2.35038e-05 14.2074 6.43482e-07H10.477C8.82934 -2.35038e-05 7.50765 -3.56404e-05 6.46955 0.133281C5.39454 0.271331 4.49826 0.565469 3.78737 1.24449C3.37739 1.6361 3.10128 2.08672 2.91321 2.59496C3.52196 2.31727 4.21022 2.15362 4.98294 2.05353C6.29218 1.88393 7.96506 1.88394 10.0771 1.88396H14.8038C16.9158 1.88394 18.5886 1.88393 19.8979 2.05353C20.5728 2.14095 21.1833 2.27686 21.7326 2.49487C21.546 2.02737 21.2799 1.6102 20.8969 1.24449C20.186 0.565469 19.2898 0.271331 18.2147 0.133281Z" fill="white"/>
</svg>
