<svg width="157" height="53" viewBox="0 0 157 53" fill="none" xmlns="http://www.w3.org/2000/svg">
<path d="M11.4715 43.15C11.4715 44.4167 11.4381 45.55 11.3715 46.55C11.3048 47.5833 11.1215 48.5 10.8215 49.3C9.98815 51.5 8.08815 52.6 5.12148 52.6C4.85482 52.6 4.52148 52.5833 4.12148 52.55C3.72148 52.55 3.32148 52.5333 2.92148 52.5C2.48815 52.4667 2.08815 52.4167 1.72148 52.35C1.32148 52.3167 1.00482 52.2667 0.771483 52.2C0.638149 51.7333 0.554816 51.25 0.521483 50.75C0.488149 50.25 0.471483 49.8 0.471483 49.4C0.471483 48.7 0.504816 48 0.571483 47.3C0.638149 46.6 0.738149 45.9833 0.871483 45.45C1.07148 45.5167 1.37148 45.5667 1.77148 45.6C2.13815 45.6333 2.43815 45.65 2.67148 45.65C3.50482 45.65 4.03815 45.4167 4.27148 44.95C4.53815 44.5167 4.67148 43.6167 4.67148 42.25V13.9H11.4715V43.15ZM8.22148 1.5C9.02148 1.5 9.73815 1.66666 10.3715 2C11.0381 2.3 11.5882 2.7 12.0215 3.2C12.4548 3.7 12.7881 4.26667 13.0215 4.9C13.2548 5.5 13.3715 6.08333 13.3715 6.65C13.3715 7.41666 13.2215 8.13333 12.9215 8.8C12.6548 9.43333 12.2715 10 11.7715 10.5C11.3048 10.9667 10.7548 11.35 10.1215 11.65C9.52148 11.9167 8.87148 12.05 8.17148 12.05C7.30482 12.05 6.53815 11.9167 5.87148 11.65C5.20482 11.35 4.63815 10.9833 4.17148 10.55C3.73815 10.0833 3.42148 9.55 3.22148 8.95C2.98815 8.35 2.87148 7.73333 2.87148 7.1C2.87148 6.46666 3.00482 5.81666 3.27148 5.15C3.50482 4.48333 3.83815 3.88333 4.27148 3.35C4.73815 2.78333 5.30482 2.33333 5.97148 2C6.63815 1.66666 7.38815 1.5 8.22148 1.5ZM23.9953 27.25C24.4286 28.6833 25.1453 29.85 26.1453 30.75C27.1453 31.65 28.5286 32.1 30.2953 32.1C30.8286 32.1 31.3953 32.0667 31.9953 32C32.6286 31.9 33.2453 31.7833 33.8453 31.65C34.4453 31.4833 35.012 31.3167 35.5453 31.15C36.0786 30.95 36.5453 30.7667 36.9453 30.6C37.012 31.5667 37.0453 32.6 37.0453 33.7C37.0786 34.7667 37.0953 35.8333 37.0953 36.9C37.0953 38.6667 37.0453 40.25 36.9453 41.65C34.3453 42.9167 31.4286 43.55 28.1953 43.55C26.6953 43.55 25.1786 43.3833 23.6453 43.05C22.112 42.7167 20.6286 42.0833 19.1953 41.15C17.9286 40.3167 16.8786 39.35 16.0453 38.25C15.2453 37.1167 14.612 35.9667 14.1453 34.8C13.6786 33.6 13.362 32.4333 13.1953 31.3C13.0286 30.1667 12.9453 29.15 12.9453 28.25C12.9453 26.9167 13.0953 25.5333 13.3953 24.1C13.7286 22.6333 14.2286 21.25 14.8953 19.95C15.562 18.6167 16.412 17.4 17.4453 16.3C18.4786 15.2 19.6953 14.3333 21.0953 13.7C22.7953 12.9333 24.5953 12.55 26.4953 12.55C28.4953 12.55 30.2953 12.95 31.8953 13.75C33.4953 14.55 34.7953 15.65 35.7953 17.05C36.762 18.3833 37.362 19.8667 37.5953 21.5C37.862 23.1333 37.9953 25.05 37.9953 27.25H23.9953ZM26.8453 17.95C26.1453 17.95 25.4786 18.25 24.8453 18.85C24.212 19.4167 23.7953 20.4333 23.5953 21.9H30.1453C30.012 20.5667 29.612 19.5833 28.9453 18.95C28.312 18.2833 27.612 17.95 26.8453 17.95ZM47.3684 0.949999C47.2017 5.58333 47.0684 10.2833 46.9684 15.05C46.9017 19.8167 46.8684 24.8833 46.8684 30.25C46.8684 32.5167 46.8684 34.35 46.8684 35.75C46.8684 37.1167 46.8684 38.25 46.8684 39.15C46.8684 40.0167 46.8684 40.7333 46.8684 41.3C46.9017 41.8333 46.9184 42.4 46.9184 43H39.4184C39.5184 40.0667 39.585 36.6333 39.6184 32.7C39.6517 28.7667 39.6684 24.2 39.6684 19C39.6684 16.7333 39.6684 14.8167 39.6684 13.25C39.6684 11.65 39.6517 10.2 39.6184 8.9C39.6184 7.6 39.6184 6.35 39.6184 5.15C39.6184 3.91667 39.6184 2.51667 39.6184 0.949999H47.3684ZM56.9805 0.949999C56.8138 5.58333 56.6805 10.2833 56.5805 15.05C56.5138 19.8167 56.4805 24.8833 56.4805 30.25C56.4805 32.5167 56.4805 34.35 56.4805 35.75C56.4805 37.1167 56.4805 38.25 56.4805 39.15C56.4805 40.0167 56.4805 40.7333 56.4805 41.3C56.5138 41.8333 56.5305 42.4 56.5305 43H49.0305C49.1305 40.0667 49.1971 36.6333 49.2305 32.7C49.2638 28.7667 49.2805 24.2 49.2805 19C49.2805 16.7333 49.2805 14.8167 49.2805 13.25C49.2805 11.65 49.2638 10.2 49.2305 8.9C49.2305 7.6 49.2305 6.35 49.2305 5.15C49.2305 3.91667 49.2305 2.51667 49.2305 0.949999H56.9805ZM80.4426 13.1L70.1426 52.05H62.5926L64.9426 42.15L57.2426 13.1H65.1426L67.8926 27.65C68.0592 28.4167 68.1926 29 68.2926 29.4C68.4259 29.8 68.6259 30 68.8926 30C69.3259 30 69.6926 29.2167 69.9926 27.65L72.8426 13.1H80.4426ZM87.95 43.15C87.95 44.4167 87.9167 45.55 87.85 46.55C87.7833 47.5833 87.6 48.5 87.3 49.3C86.4667 51.5 84.5667 52.6 81.6 52.6C81.3333 52.6 81 52.5833 80.6 52.55C80.2 52.55 79.8 52.5333 79.4 52.5C78.9667 52.4667 78.5667 52.4167 78.2 52.35C77.8 52.3167 77.4833 52.2667 77.25 52.2C77.1167 51.7333 77.0333 51.25 77 50.75C76.9667 50.25 76.95 49.8 76.95 49.4C76.95 48.7 76.9833 48 77.05 47.3C77.1167 46.6 77.2167 45.9833 77.35 45.45C77.55 45.5167 77.85 45.5667 78.25 45.6C78.6167 45.6333 78.9167 45.65 79.15 45.65C79.9833 45.65 80.5167 45.4167 80.75 44.95C81.0167 44.5167 81.15 43.6167 81.15 42.25V13.9H87.95V43.15ZM84.7 1.5C85.5 1.5 86.2167 1.66666 86.85 2C87.5167 2.3 88.0667 2.7 88.5 3.2C88.9333 3.7 89.2667 4.26667 89.5 4.9C89.7333 5.5 89.85 6.08333 89.85 6.65C89.85 7.41666 89.7 8.13333 89.4 8.8C89.1333 9.43333 88.75 10 88.25 10.5C87.7833 10.9667 87.2333 11.35 86.6 11.65C86 11.9167 85.35 12.05 84.65 12.05C83.7833 12.05 83.0167 11.9167 82.35 11.65C81.6833 11.35 81.1167 10.9833 80.65 10.55C80.2167 10.0833 79.9 9.55 79.7 8.95C79.4667 8.35 79.35 7.73333 79.35 7.1C79.35 6.46666 79.4833 5.81666 79.75 5.15C79.9833 4.48333 80.3167 3.88333 80.75 3.35C81.2167 2.78333 81.7833 2.33333 82.45 2C83.1167 1.66666 83.8667 1.5 84.7 1.5ZM100.474 27.25C100.907 28.6833 101.624 29.85 102.624 30.75C103.624 31.65 105.007 32.1 106.774 32.1C107.307 32.1 107.874 32.0667 108.474 32C109.107 31.9 109.724 31.7833 110.324 31.65C110.924 31.4833 111.49 31.3167 112.024 31.15C112.557 30.95 113.024 30.7667 113.424 30.6C113.49 31.5667 113.524 32.6 113.524 33.7C113.557 34.7667 113.574 35.8333 113.574 36.9C113.574 38.6667 113.524 40.25 113.424 41.65C110.824 42.9167 107.907 43.55 104.674 43.55C103.174 43.55 101.657 43.3833 100.124 43.05C98.5905 42.7167 97.1072 42.0833 95.6738 41.15C94.4072 40.3167 93.3572 39.35 92.5238 38.25C91.7238 37.1167 91.0905 35.9667 90.6238 34.8C90.1572 33.6 89.8405 32.4333 89.6738 31.3C89.5072 30.1667 89.4238 29.15 89.4238 28.25C89.4238 26.9167 89.5738 25.5333 89.8738 24.1C90.2072 22.6333 90.7072 21.25 91.3738 19.95C92.0405 18.6167 92.8905 17.4 93.9238 16.3C94.9572 15.2 96.1738 14.3333 97.5738 13.7C99.2738 12.9333 101.074 12.55 102.974 12.55C104.974 12.55 106.774 12.95 108.374 13.75C109.974 14.55 111.274 15.65 112.274 17.05C113.24 18.3833 113.84 19.8667 114.074 21.5C114.34 23.1333 114.474 25.05 114.474 27.25H100.474ZM103.324 17.95C102.624 17.95 101.957 18.25 101.324 18.85C100.69 19.4167 100.274 20.4333 100.074 21.9H106.624C106.49 20.5667 106.09 19.5833 105.424 18.95C104.79 18.2833 104.09 17.95 103.324 17.95ZM123.847 0.949999C123.68 5.58333 123.547 10.2833 123.447 15.05C123.38 19.8167 123.347 24.8833 123.347 30.25C123.347 32.5167 123.347 34.35 123.347 35.75C123.347 37.1167 123.347 38.25 123.347 39.15C123.347 40.0167 123.347 40.7333 123.347 41.3C123.38 41.8333 123.397 42.4 123.397 43H115.897C115.997 40.0667 116.064 36.6333 116.097 32.7C116.13 28.7667 116.147 24.2 116.147 19C116.147 16.7333 116.147 14.8167 116.147 13.25C116.147 11.65 116.13 10.2 116.097 8.9C116.097 7.6 116.097 6.35 116.097 5.15C116.097 3.91667 116.097 2.51667 116.097 0.949999H123.847ZM133.459 0.949999C133.292 5.58333 133.159 10.2833 133.059 15.05C132.992 19.8167 132.959 24.8833 132.959 30.25C132.959 32.5167 132.959 34.35 132.959 35.75C132.959 37.1167 132.959 38.25 132.959 39.15C132.959 40.0167 132.959 40.7333 132.959 41.3C132.992 41.8333 133.009 42.4 133.009 43H125.509C125.609 40.0667 125.676 36.6333 125.709 32.7C125.742 28.7667 125.759 24.2 125.759 19C125.759 16.7333 125.759 14.8167 125.759 13.25C125.759 11.65 125.742 10.2 125.709 8.9C125.709 7.6 125.709 6.35 125.709 5.15C125.709 3.91667 125.709 2.51667 125.709 0.949999H133.459ZM156.921 13.1L146.621 52.05H139.071L141.421 42.15L133.721 13.1H141.621L144.371 27.65C144.538 28.4167 144.671 29 144.771 29.4C144.904 29.8 145.104 30 145.371 30C145.804 30 146.171 29.2167 146.471 27.65L149.321 13.1H156.921Z" fill="white"/>
</svg>
