<svg width="24" height="20" viewBox="0 0 24 20" fill="none" xmlns="http://www.w3.org/2000/svg">
<path d="M21.2702 9.99891L23.4079 7.87308C23.5186 7.76235 23.6065 7.63089 23.6664 7.48622C23.7263 7.34154 23.7572 7.18647 23.7572 7.02988C23.7572 6.87328 23.7263 6.71821 23.6664 6.57353C23.6065 6.42886 23.5186 6.2974 23.4079 6.18667C23.2972 6.07594 23.1657 5.9881 23.021 5.92817C22.8764 5.86825 22.7213 5.8374 22.5647 5.8374C22.4081 5.8374 22.253 5.86825 22.1084 5.92817C21.9637 5.9881 21.8322 6.07594 21.7215 6.18667L19.5957 8.32437L17.4698 6.18667C17.2462 5.96304 16.9429 5.8374 16.6266 5.8374C16.3104 5.8374 16.0071 5.96304 15.7834 6.18667C15.5598 6.4103 15.4342 6.71361 15.4342 7.02988C15.4342 7.34614 15.5598 7.64945 15.7834 7.87308L17.9211 9.99891L15.7834 12.1247C15.6721 12.2351 15.5838 12.3665 15.5235 12.5112C15.4632 12.6559 15.4321 12.8112 15.4321 12.9679C15.4321 13.1247 15.4632 13.28 15.5235 13.4247C15.5838 13.5694 15.6721 13.7007 15.7834 13.8112C15.8938 13.9225 16.0252 14.0108 16.1699 14.0711C16.3146 14.1314 16.4698 14.1624 16.6266 14.1624C16.7834 14.1624 16.9386 14.1314 17.0834 14.0711C17.2281 14.0108 17.3594 13.9225 17.4698 13.8112L19.5957 11.6734L21.7215 13.8112C21.8319 13.9225 21.9632 14.0108 22.108 14.0711C22.2527 14.1314 22.4079 14.1624 22.5647 14.1624C22.7215 14.1624 22.8767 14.1314 23.0214 14.0711C23.1661 14.0108 23.2975 13.9225 23.4079 13.8112C23.5192 13.7007 23.6076 13.5694 23.6679 13.4247C23.7282 13.28 23.7592 13.1247 23.7592 12.9679C23.7592 12.8112 23.7282 12.6559 23.6679 12.5112C23.6076 12.3665 23.5192 12.2351 23.4079 12.1247L21.2702 9.99891Z" fill="white"/>
<path d="M11.1398 0.592855C10.9235 0.501908 10.6852 0.47706 10.4548 0.521446C10.2244 0.565832 10.0123 0.677463 9.84532 0.842254L5.45115 5.2483H2.37523C1.74528 5.2483 1.14113 5.49855 0.695688 5.94399C0.250246 6.38943 0 6.99358 0 7.62353V12.374C0 13.0039 0.250246 13.6081 0.695688 14.0535C1.14113 14.499 1.74528 14.7492 2.37523 14.7492H5.45115L9.84532 19.1553C9.95629 19.2653 10.0879 19.3524 10.2326 19.4115C10.3773 19.4706 10.5322 19.5006 10.6885 19.4997C10.8443 19.5037 10.9989 19.4711 11.1398 19.4047C11.3567 19.3156 11.5424 19.1643 11.6734 18.9698C11.8044 18.7754 11.875 18.5465 11.8761 18.3121V1.68546C11.875 1.45099 11.8044 1.22212 11.6734 1.02769C11.5424 0.833249 11.3567 0.68195 11.1398 0.592855Z" fill="white"/>
</svg>
