<svg width="24" height="24" viewBox="0 0 24 24" fill="none" xmlns="http://www.w3.org/2000/svg">
<path d="M12 24C5.4 24 0 18.6 0 12C0 5.4 5.4 0 12 0C18.6 0 24 5.4 24 12C24 18.6 18.6 24 12 24ZM12 2.4C6.72 2.4 2.4 6.72 2.4 12C2.4 17.28 6.72 21.6 12 21.6C17.28 21.6 21.6 17.28 21.6 12C21.6 6.72 17.28 2.4 12 2.4Z" fill="white"/>
<path d="M10.3201 13.6801C9.36008 12.7201 6.96008 6.84009 6.96008 6.84009C6.96008 6.84009 12.8401 9.24009 13.8001 10.2001C14.7601 11.1601 14.7601 12.6001 13.8001 13.5601C12.7201 14.6401 11.2801 14.6401 10.3201 13.6801Z" fill="white"/>
</svg>
