<svg width="21" height="17" viewBox="0 0 21 17" fill="none" xmlns="http://www.w3.org/2000/svg">
<path d="M0.987811 7.4047L10.02 12.5659C10.1662 12.6495 10.3317 12.6934 10.5001 12.6934C10.6685 12.6934 10.834 12.6495 10.9802 12.5659L20.0124 7.4047C20.1605 7.32006 20.2836 7.19776 20.3693 7.05021C20.4549 6.90265 20.5 6.73508 20.5 6.56447C20.5 6.39387 20.4549 6.2263 20.3693 6.07874C20.2836 5.93118 20.1605 5.80889 20.0124 5.72424L10.9802 0.563011C10.834 0.479482 10.6685 0.435547 10.5001 0.435547C10.3317 0.435547 10.1662 0.479482 10.02 0.563011L0.987811 5.72424C0.839685 5.80889 0.716568 5.93118 0.630937 6.07874C0.545306 6.2263 0.500205 6.39387 0.500205 6.56447C0.500205 6.73508 0.545306 6.90265 0.630937 7.05021C0.716568 7.19776 0.839685 7.32006 0.987811 7.4047ZM10.5001 2.51784L17.5817 6.56447L10.5001 10.6111L3.41844 6.56447L10.5001 2.51784ZM20.3725 9.95523C20.4355 10.0656 20.4762 10.1873 20.4923 10.3133C20.5083 10.4394 20.4993 10.5674 20.4659 10.69C20.4325 10.8126 20.3752 10.9274 20.2974 11.0279C20.2196 11.1284 20.1227 11.2126 20.0124 11.2756L10.9802 16.4369C10.834 16.5204 10.6685 16.5644 10.5001 16.5644C10.3317 16.5644 10.1662 16.5204 10.02 16.4369L0.987815 11.2756C0.877442 11.2126 0.780567 11.1284 0.702723 11.028C0.624879 10.9275 0.567591 10.8126 0.534132 10.69C0.500673 10.5674 0.491697 10.4394 0.507718 10.3133C0.523739 10.1872 0.564442 10.0655 0.627503 9.95515C0.690564 9.84479 0.774747 9.74794 0.875244 9.67012C0.975742 9.5923 1.09059 9.53504 1.21322 9.50161C1.33584 9.46818 1.46386 9.45924 1.58995 9.47529C1.71603 9.49134 1.83772 9.53208 1.94806 9.59517L10.5001 14.482L19.0521 9.59517C19.1625 9.5321 19.2841 9.49138 19.4102 9.47534C19.5363 9.4593 19.6643 9.46826 19.7869 9.50169C19.9095 9.53513 20.0243 9.59239 20.1248 9.67021C20.2253 9.74803 20.3094 9.84488 20.3725 9.95523Z" fill="white"/>
</svg>
