<svg width="12" height="20" viewBox="0 0 12 20" fill="none" xmlns="http://www.w3.org/2000/svg">
<path d="M11.1398 0.592855C10.9235 0.501908 10.6852 0.47706 10.4548 0.521446C10.2244 0.565832 10.0123 0.677463 9.84532 0.842254L5.45115 5.2483H2.37523C1.74528 5.2483 1.14113 5.49855 0.695688 5.94399C0.250246 6.38943 0 6.99358 0 7.62353V12.374C0 13.0039 0.250246 13.6081 0.695688 14.0535C1.14113 14.499 1.74528 14.7492 2.37523 14.7492H5.45115L9.84532 19.1553C9.95629 19.2653 10.0879 19.3524 10.2326 19.4115C10.3773 19.4706 10.5322 19.5006 10.6885 19.4997C10.8443 19.5037 10.9989 19.4711 11.1398 19.4047C11.3567 19.3156 11.5424 19.1643 11.6734 18.9698C11.8044 18.7754 11.875 18.5465 11.8761 18.3121V1.68546C11.875 1.45099 11.8044 1.22212 11.6734 1.02769C11.5424 0.833249 11.3567 0.68195 11.1398 0.592855Z" fill="white"/>
</svg>
